<?xml version="1.0" encoding="iso-8859-1"?>
<!-- Generator: Adobe Illustrator 16.0.0, SVG Export Plug-In . SVG Version: 6.00 Build 0)  -->
<!DOCTYPE svg PUBLIC "-//W3C//DTD SVG 1.1//EN" "http://www.w3.org/Graphics/SVG/1.1/DTD/svg11.dtd">
<svg xmlns="http://www.w3.org/2000/svg" xmlns:xlink="http://www.w3.org/1999/xlink" version="1.1" id="Capa_1" x="0px" y="0px" width="512px" height="512px" viewBox="0 0 96.539 96.539" style="enable-background:new 0 0 96.539 96.539;" xml:space="preserve">
<g>
	<g>
		<path d="M33.337,58.396c-2.534,0-4.899,1.731-5.66,4.562c-0.081,0.425-0.214,0.935-0.214,1.523v3.668    c0,0.476,0.089,0.935,0.173,1.355c0.718,2.573,2.866,4.346,5.571,4.346c3.886,0,6.206-3.165,6.206-7.85    C39.413,61.906,37.307,58.396,33.337,58.396z" fill="#f45a40"/>
		<path d="M66.284,58.225c-4.395,0-6.29,4.052-6.29,7.942c0,4.474,2.569,7.854,6.204,7.854c3.549,0,6.204-3.34,6.204-7.939    C72.406,62.618,70.678,58.225,66.284,58.225z" fill="#f45a40"/>
		<path d="M48.264,0c0,0-35.465,41.48-35.465,61.068c0,19.592,15.884,35.471,35.465,35.471c19.59,0,35.476-15.879,35.476-35.471    C83.74,41.48,48.264,0,48.264,0z M33.967,76.807c-2.95,0-5.318-1.14-6.836-3.847h-0.123l-0.171,3.382h-3.21    c0.087-1.39,0.171-3.46,0.171-5.277V46.363h3.669V59.2h0.089c1.307-2.283,3.668-3.755,6.959-3.755c5.07,0,8.66,4.217,8.617,10.428    C43.131,73.176,38.533,76.807,33.967,76.807z M51.548,76.342H47.83V55.904h3.718V76.342z M49.601,52.448    c-1.3,0-2.233-1.014-2.233-2.279c0-1.314,0.97-2.327,2.32-2.327c1.395,0,2.278,1.013,2.278,2.327    C52.008,51.435,51.086,52.448,49.601,52.448z M66.034,76.807c-5.53,0-9.795-4.055-9.795-10.516c0-6.838,4.467-10.846,10.13-10.846    c5.872,0,9.843,4.258,9.843,10.507C76.208,73.515,70.972,76.807,66.034,76.807z" fill="#f45a40"/>
	</g>
</g>
<g>
</g>
<g>
</g>
<g>
</g>
<g>
</g>
<g>
</g>
<g>
</g>
<g>
</g>
<g>
</g>
<g>
</g>
<g>
</g>
<g>
</g>
<g>
</g>
<g>
</g>
<g>
</g>
<g>
</g>
</svg>
